#!OML:ASF F:\VICON\USERDATA\INSTALL\rory3\rory3.ASF
:FULLY-SPECIFIED
:DEGREES
1738
root 5.55637 17.472 1.07991 19.0213 0.410363 0.821736
lowerback -8.91395 -1.57247 8.23461
upperback -13.2872 -2.31692 0.833798
thorax -9.62773 -1.91825 -3.68017
lowerneck -4.42381 19.5249 11.0298
upperneck 9.74914 25.4153 -0.0963667
head 4.99065 12.8801 0.113523
rclavicle 1.03368e-014 -1.03368e-014
rhumerus -9.30428 -29.0791 27.9898
rradius 113.488
rwrist -61.568
rhand -3.90127 -41.6448
rfingers 7.12502
rthumb 21.8488 -70.4313
lclavicle 1.03368e-014 -1.03368e-014
lhumerus 24.5023 28.5424 -13.2712
lradius 32.524
lwrist 55.8296
lhand -20.4525 -12.4737
lfingers 7.12502
lthumb 5.903 17.4241
rfemur -14.5561 10.7612 -9.65895
rtibia 12.6791
rfoot -8.86921 -24.0173
rtoes 32.6465
lfemur -19.0408 2.96998 -30.9515
ltibia 16.0828
lfoot -15.2608 3.57165
ltoes 9.76618
1739
root 5.57109 17.4709 1.08572 18.8617 0.517321 0.824135
lowerback -8.74519 -1.5822 8.48817
upperback -13.2724 -2.3236 0.781407
thorax -9.73389 -1.95205 -3.87047
lowerneck -4.40083 19.5349 11.0665
upperneck 9.79846 25.4286 -0.0846625
head 5.00636 12.8893 0.115678
rclavicle -3.39922e-014 7.95139e-015
rhumerus -9.24455 -29.0593 27.9129
rradius 113.494
rwrist -61.6241
rhand -3.90552 -41.6631
rfingers 7.12502
rthumb 21.8447 -70.4501
lclavicle -3.39922e-014 7.95139e-015
lhumerus 24.7942 28.8232 -12.8861
lradius 32.3326
lwrist 55.2906
lhand -20.4991 -12.5945
lfingers 7.12502
lthumb 5.85793 17.3045
rfemur -14.2453 10.4564 -9.57531
rtibia 12.6994
rfoot -8.37397 -23.9765
rtoes 32.2745
lfemur -18.8153 3.11653 -31.0049
ltibia 16.1235
lfoot -15.4036 3.36285
ltoes 9.88387
1740
root 5.57814 17.4698 1.09694 18.7242 0.481633 0.687706
lowerback -8.6249 -1.54517 8.71696
upperback -13.2643 -2.26754 0.785815
thorax -9.80558 -1.94799 -3.98817
lowerneck -4.30682 19.5143 11.1227
upperneck 9.79603 25.413 -0.125368
head 5.00266 12.8827 0.0889811
rclavicle -1.64991e-014 -1.59028e-014
rhumerus -9.22175 -28.9712 27.8991
rradius 113.569
rwrist -61.7093
rhand -4.06026 -41.724
rfingers 7.12502
rthumb 21.6961 -70.5283
lclavicle -1.64991e-014 -1.59028e-014
lhumerus 25.0382 29.0476 -12.5464
lradius 32.1758
lwrist 54.7854
lhand -20.5836 -12.943
lfingers 7.12502
lthumb 5.7764 16.9583
rfemur -14.075 10.4892 -9.42209
rtibia 12.6347
rfoot -7.95186 -24.2392
rtoes 31.9382
lfemur -18.6361 3.1866 -30.8781
ltibia 16.1646
lfoot -15.5177 3.35159
ltoes 10.2649
1741
root 5.58146 17.4697 1.10596 18.7507 0.494247 0.597788
lowerback -8.64468 -1.53371 8.82142
upperback -13.2767 -2.25428 0.813904
thorax -9.81445 -1.95044 -4.01579
lowerneck -4.14229 19.4805 11.1856
upperneck 9.5915 25.3954 -0.273717
head 4.93864 12.868 0.0131494
rclavicle -1.5704e-014 3.97569e-015
rhumerus -9.25302 -28.9268 27.9641
rradius 113.637
rwrist -61.7632
rhand -4.11149 -41.763
rfingers 7.12502
rthumb 21.6469 -70.5729
lclavicle -1.5704e-014 3.97569e-015
lhumerus 25.1342 29.1477 -12.3911
lradius 32.1091
lwrist 54.5941
lhand -20.6794 -13.186
lfingers 7.12502
lthumb 5.68391 16.7177
rfemur -13.9758 10.507 -9.33613
rtibia 12.4352
rfoot -7.25643 -24.577
rtoes 30.707
lfemur -18.6509 3.19276 -30.7909
ltibia 16.1796
lfoot -15.5387 3.34694
ltoes 10.2446
1742
root 5.58399 17.4694 1.1147 18.6778 0.510117 0.539063
lowerback -8.61838 -1.5354 8.8881
upperback -13.2308 -2.25558 0.843021
thorax -9.77988 -1.95266 -4.02173
lowerneck -4.04419 19.4656 11.2029
upperneck 9.42024 25.3957 -0.39232
head 4.88684 12.8619 -0.0401828
rclavicle -1.86858e-014 1.59028e-015
rhumerus -9.25817 -28.941 27.9932
rradius 113.677
rwrist -61.9236
rhand -4.35365 -41.7028
rfingers 7.12502
rthumb 21.4143 -70.5394
lclavicle -1.86858e-014 1.59028e-015
lhumerus 25.1431 29.1675 -12.3513
lradius 32.0834
lwrist 54.5172
lhand -20.3955 -12.9836
lfingers 7.12502
lthumb 5.95797 16.9127
rfemur -13.7482 10.5416 -9.24953
rtibia 12.247
rfoot -6.84937 -24.6837
rtoes 29.8619
lfemur -18.5583 3.30343 -30.7415
ltibia 16.1841
lfoot -15.5738 3.28139
ltoes 10.0407
1743
root 5.58386 17.4695 1.11991 18.5787 0.572934 0.557953
lowerback -8.54316 -1.55954 8.86564
upperback -13.1864 -2.28096 0.84726
thorax -9.77258 -1.96068 -4.00324
lowerneck -4.23681 19.514 11.022
upperneck 9.57282 25.4264 -0.1468
head 4.91201 12.8835 0.0711314
rclavicle -1.23246e-014 7.95139e-016
rhumerus -9.24916 -28.9559 27.9752
rradius 113.686
rwrist -62.0042
rhand -4.69682 -41.6139
rfingers 7.12502
rthumb 21.0847 -70.4876
lclavicle -1.23246e-014 7.95139e-016
lhumerus 25.1419 29.1342 -12.3552
lradius 32.1102
lwrist 54.6161
lhand -20.1954 -12.8054
lfingers 7.12502
lthumb 6.1512 17.0853
rfemur -13.521 10.659 -9.23513
rtibia 12.1062
rfoot -7.06794 -24.7279
rtoes 30.139
lfemur -18.4228 3.38035 -30.7435
ltibia 16.1746
lfoot -15.6119 3.13722
ltoes 10.0453
